#!Matlab matrix to amc conversion
:FULLY-SPECIFIED
:DEGREES
1
root 9.287220 16.950000 -34.276200 0.000000 0.000000 0.000000
lowerback 0.000000 0.000000 0.000000
upperback 0.000000 0.000000 0.000000
thorax 0.000000 0.000000 0.000000
lowerneck -16.000000 0.000000 0.000000
upperneck 21.000000 0.000000 0.000000
head 11.000000 0.000000 0.000000
rclavicle 0.000000 0.000000
rhumerus 0.000000 0.000000 0.000000
rradius 0.000000
rwrist 0.000000
rhand 0.000000 0.000000
rfingers 0.000000
rthumb 0.000000 0.000000
lclavicle 0.000000 0.000000
lhumerus 0.000000 0.000000 0.000000
lradius 0.000000
lwrist 0.000000
lhand 0.000000 0.000000
lfingers 0.000000
lthumb 0.000000 0.000000
rfemur 0.000000 0.000000 21.000000
rtibia 0.000000
rfoot 0.000000 0.000000
rtoes 0.000000
lfemur 0.000000 0.000000 -21.000000
ltibia 0.000000
lfoot 0.000000 0.000000
ltoes 0.000000
2
root 9.287220 16.950000 -34.276200 0.934540 1.634016 -0.102060
lowerback 13.406560 1.212843 -1.015713
upperback -0.589635 1.514128 1.034552
thorax -8.249250 0.819704 1.471125
lowerneck -11.109447 -0.658219 -2.203907
upperneck 24.434205 -0.255056 -0.923826
head 9.729328 -0.404014 -0.020478
rclavicle -0.000000 0.000000
rhumerus -34.430655 -7.859061 -78.098424
rradius 30.409830
rwrist 0.075495
rhand -13.664013 12.625433
rfingers 7.125020
rthumb 12.446746 -16.933756
lclavicle -0.000000 0.000000
lhumerus -40.998284 8.992096 81.922163
lradius 35.772855
lwrist 4.593962
lhand -11.882860 45.969450
lfingers 7.125020
lthumb 14.151500 75.436881
rfemur -6.293530 1.677049 21.920881
rtibia 61.470029
rfoot 5.965177 -7.727651
rtoes 4.747611
lfemur -13.661965 -5.916565 -24.751732
ltibia 25.557383
lfoot -5.792236 1.334461
ltoes -4.278782
3
root 9.273270 17.016600 -33.905900 0.570475 1.634016 -0.070280
lowerback 13.964161 1.001436 -2.346029
upperback -0.476058 1.038041 0.840051
thorax -8.418734 0.636233 2.089670
lowerneck -10.627778 -0.544837 -2.176979
upperneck 24.167610 -0.091618 -1.130365
head 9.528986 -0.339923 -0.070047
rclavicle -0.000000 0.000000
rhumerus -35.005887 -7.805561 -78.177422
rradius 29.632076
rwrist 1.015832
rhand -13.336934 12.824481
rfingers 7.125020
rthumb 12.763540 -16.717339
lclavicle -0.000000 0.000000
lhumerus -40.081380 7.840804 82.865893
lradius 36.844788
lwrist 5.377393
lhand -11.919894 45.875184
lfingers 7.125020
lthumb 14.133230 75.351408
rfemur -12.087912 0.195782 19.883432
rtibia 69.392210
rfoot 2.875682 -9.610456
rtoes 4.494292
lfemur -10.585177 -5.706336 -26.823290
ltibia 24.970728
lfoot -7.005318 0.964119
ltoes -3.593443
4
root 9.268420 17.025800 -33.555600 0.680181 1.634016 -0.086086
lowerback 14.121576 0.739336 -2.984952
upperback -0.282521 0.560385 0.873301
thorax -8.257801 0.427750 2.567592
lowerneck -10.736601 -0.396321 -1.746360
upperneck 24.088786 0.152215 -1.659657
head 9.527886 -0.243064 -0.305353
rclavicle -0.000000 0.000000
rhumerus -35.033796 -8.115728 -78.120562
rradius 29.887287
rwrist 0.653294
rhand -13.250442 12.099025
rfingers 7.125020
rthumb 12.844429 -17.441297
lclavicle -0.000000 0.000000
lhumerus -39.136112 7.038134 83.060628
lradius 38.309261
lwrist 5.966089
lhand -12.725343 45.676165
lfingers 7.125020
lthumb 13.352009 75.186084
rfemur -15.813341 -0.192558 19.219959
rtibia 66.973723
rfoot -0.754676 -9.454880
rtoes 4.691729
lfemur -8.572420 -5.760900 -27.711866
ltibia 25.196440
lfoot -8.583704 1.139916
ltoes -4.213364
5
root 9.249270 17.016300 -33.220600 0.769578 1.634016 -0.090132
lowerback 14.268257 0.514402 -3.524335
upperback -0.098045 0.142006 0.902499
thorax -8.098435 0.245836 3.010004
lowerneck -10.828758 -0.250613 -1.366542
upperneck 24.009832 0.390127 -2.139861
head 9.526287 -0.148016 -0.502390
rclavicle -0.000000 0.000000
rhumerus -35.065114 -8.401782 -78.067774
rradius 30.053684
rwrist 0.342038
rhand -13.166912 11.621753
rfingers 7.125020
rthumb 12.922327 -17.911975
lclavicle -0.000000 0.000000
lhumerus -38.289755 6.295153 83.230851
lradius 39.585382
lwrist 6.519801
lhand -13.494715 45.464947
lfingers 7.125020
lthumb 12.605453 75.007669
rfemur -19.102645 -0.475255 18.650598
rtibia 64.584511
rfoot -3.559650 -9.358645
rtoes 4.756458
lfemur -6.712140 -5.810832 -28.511998
ltibia 25.329437
lfoot -9.970434 1.315503
ltoes -4.732200
6
root 9.246830 17.017700 -32.897400 0.852392 1.634016 -0.091771
lowerback 14.405813 0.308718 -4.005668
upperback 0.080955 -0.243926 0.928847
thorax -7.936779 0.078142 3.431816
lowerneck -10.911115 -0.106200 -1.013016
upperneck 23.929616 0.624850 -2.590054
head 9.524159 -0.053771 -0.677692
rclavicle -0.000000 0.000000
rhumerus -35.101463 -8.679718 -78.016823
rradius 30.172887
rwrist 0.053477
rhand -13.084445 11.282108
rfingers 7.125020
rthumb 12.999002 -18.242771
lclavicle -0.000000 0.000000
lhumerus -37.487989 5.585078 83.382467
lradius 40.769486
lwrist 7.058116
lhand -14.253435 45.237519
lfingers 7.125020
lthumb 11.868926 74.812810
rfemur -22.142405 -0.678308 18.137821
rtibia 61.965999
rfoot -5.947135 -9.308631
rtoes 4.697801
lfemur -4.929985 -5.859895 -29.258278
ltibia 25.391306
lfoot -11.264033 1.494374
ltoes -5.234637
7
root 9.219480 17.016100 -32.563300 0.941334 1.634016 -0.094797
lowerback 14.535752 0.105900 -4.465977
upperback 0.257960 -0.622158 0.953427
thorax -7.768924 -0.086720 3.847239
lowerneck -10.989810 0.038416 -0.662967
upperneck 23.846988 0.859077 -3.028120
head 9.521466 0.040669 -0.845973
rclavicle -0.000000 0.000000
rhumerus -35.144722 -8.965081 -77.965548
rradius 30.274710
rwrist -0.238891
rhand -13.001170 11.001413
rfingers 7.125020
rthumb 13.076195 -18.513385
lclavicle -0.000000 0.000000
lhumerus -36.679352 4.882312 83.520734
lradius 41.950958
lwrist 7.600074
lhand -15.026578 44.989562
lfingers 7.125020
lthumb 11.118124 74.597845
rfemur -25.105044 -0.820391 17.647827
rtibia 58.834796
rfoot -8.264316 -9.298017
rtoes 4.507309
lfemur -3.154721 -5.911783 -29.982966
ltibia 25.392087
lfoot -12.556406 1.680091
ltoes -5.802688
8
root 9.210440 16.998300 -32.235300 1.050060 1.634016 -0.106207
lowerback 14.659496 -0.110205 -4.940669
upperback 0.436411 -1.016945 0.977251
thorax -7.590806 -0.259941 4.270273
lowerneck -11.070705 0.184737 -0.293807
upperneck 23.760762 1.095499 -3.471462
head 9.518161 0.136304 -1.021353
rclavicle -0.000000 0.000000
rhumerus -35.197129 -9.273830 -77.911777
rradius 30.384623
rwrist -0.561919
rhand -12.915195 10.714647
rfingers 7.125020
rthumb 13.155657 -18.789012
lclavicle -0.000000 0.000000
lhumerus -35.811943 4.161522 83.650449
lradius 43.218986
lwrist 8.164848
lhand -15.839696 44.716368
lfingers 7.125020
lthumb 10.328274 74.358733
rfemur -28.158611 -0.914569 17.148318
rtibia 54.852023
rfoot -10.848156 -9.325357
rtoes 4.157550
lfemur -1.315392 -5.970408 -30.717394
ltibia 25.331908
lfoot -13.939373 1.876349
ltoes -6.529074
9
root 9.216220 16.950400 -31.922700 1.050041 1.634016 0.199863
lowerback 14.242987 -0.324227 -5.248763
upperback 0.382060 -1.315409 0.974768
thorax -7.372410 -0.403973 4.467649
lowerneck -11.016109 0.118634 -0.341071
upperneck 23.957357 0.983253 -3.309912
head 9.587589 0.090361 -0.971959
rclavicle -0.000000 0.000000
rhumerus -35.787337 -9.793654 -77.669909
rradius 29.994710
rwrist -0.233639
rhand -12.940913 11.605945
rfingers 7.125020
rthumb 13.132650 -17.896784
lclavicle -0.000000 0.000000
lhumerus -35.317197 3.427642 83.665190
lradius 43.861522
lwrist 8.044554
lhand -15.561961 44.451998
lfingers 7.125020
lthumb 10.605742 74.099102
rfemur -27.029554 2.014029 15.774419
rtibia 42.903560
rfoot -11.965021 -13.039146
rtoes 3.261067
lfemur 1.724233 -5.905106 -30.837194
ltibia 22.709678
lfoot -13.292216 1.145315
ltoes -8.537634
